Coordinates
version=1
nRows=19
nColumns=63
inDegrees=yes

Units are S.I. units (second, meters, Newtons, ...)
If the header above contains a line with 'inDegrees', this indicates whether rotational values are in degrees (yes) or radians (no).

endheader
time	pelvis_tilt	pelvis_list	pelvis_rotation	pelvis_tx	pelvis_ty	pelvis_tz	hip_flexion_r	hip_adduction_r	hip_rotation_r	knee_angle_r	knee_angle_r_beta	ankle_angle_r	subtalar_angle_r	mtp_angle_r	hip_flexion_l	hip_adduction_l	hip_rotation_l	knee_angle_l	knee_angle_l_beta	ankle_angle_l	subtalar_angle_l	mtp_angle_l	L5_S1_Flex_Ext	L5_S1_Lat_Bending	L5_S1_axial_rotation	L4_L5_Flex_Ext	L4_L5_Lat_Bending	L4_L5_axial_rotation	L3_L4_Flex_Ext	L3_L4_Lat_Bending	L3_L4_axial_rotation	L2_L3_Flex_Ext	L2_L3_Lat_Bending	L2_L3_axial_rotation	L1_L2_Flex_Ext	L1_L2_Lat_Bending	L1_L2_axial_rotation	L1_T12_Flex_Ext	L1_T12_Lat_Bending	L1_T12_axial_rotation	Abs_r3	Abs_r2	Abs_r1	Abs_t1	Abs_t2	neck_flexion	neck_bending	neck_rotation	arm_flex_r	arm_add_r	arm_rot_r	elbow_flex_r	pro_sup_r	wrist_flex_r	wrist_dev_r	arm_flex_l	arm_add_l	arm_rot_l	elbow_flex_l	pro_sup_l	wrist_flex_l	wrist_dev_l
0.000000	-3.907075	-3.811782	78.289951	0.121585	0.986580	0.292175	-1.409306	-2.793992	-11.346559	4.966284	0.086678	18.133472	17.576148	0.000000	-1.959361	4.649593	-4.996891	3.991925	0.069672	12.391836	-15.717306	0.000000	0.044643	-0.287702	1.533665	0.082906	-0.382644	1.629519	0.073344	-0.699520	1.629519	0.051022	-0.699520	1.341957	0.041455	-0.586683	1.246103	0.025509	-0.445651	1.150249	0.318879	-3.254547	8.529785	0.000000	0.000000	12.699389	-0.227396	-6.630649	25.198024	-9.091145	60.608274	66.848333	21.445922	9.089079	5.181390	23.566445	-9.728267	54.764664	41.335112	82.098157	12.726490	2.348295
0.016949	-3.635138	-3.608617	78.405440	0.121120	0.986817	0.292948	-1.671334	-2.526795	-10.905846	4.785062	0.083515	18.212074	17.420618	0.000000	-2.202920	4.413925	-5.027175	3.988341	0.069610	12.692397	-15.601932	0.000000	0.017188	-0.271001	1.768306	0.031921	-0.360431	1.878825	0.028239	-0.658911	1.878825	0.019645	-0.658911	1.547268	0.015961	-0.552625	1.436749	0.009821	-0.419780	1.326230	0.122775	-3.065614	9.834788	0.000000	0.000000	12.238865	-0.503166	-8.832025	24.522452	-9.876697	58.870184	67.627638	20.737964	9.102621	4.659445	26.240318	-9.347026	63.580521	40.304022	84.505410	5.999226	-2.968433
0.033898	-3.403920	-3.458655	78.499987	0.120650	0.987013	0.293494	-1.872226	-2.302641	-10.574789	4.642150	0.081021	18.280615	17.305357	0.000000	-2.394349	4.215507	-5.044935	3.974134	0.069362	12.901029	-15.530953	0.000000	-0.004433	-0.254864	1.941826	-0.008232	-0.338969	2.063190	-0.007283	-0.619676	2.063190	-0.005066	-0.619676	1.699097	-0.004116	-0.519718	1.577733	-0.002533	-0.394784	1.456369	-0.031663	-2.883070	10.799852	0.000000	0.000000	11.913138	-0.672946	-10.439646	24.020073	-10.492273	57.573619	68.243005	20.120504	9.084822	4.211957	28.188546	-9.094825	70.136928	39.592553	86.235412	0.847397	-7.169431
0.050847	-3.210864	-3.356199	78.575315	0.120182	0.987174	0.293838	-2.018131	-2.118769	-10.342454	4.533931	0.079132	18.338951	17.226023	0.000000	-2.538776	4.052061	-5.051712	3.950454	0.068948	13.026813	-15.499839	0.000000	-0.020720	-0.239455	2.060576	-0.038480	-0.318475	2.189362	-0.034041	-0.582210	2.189362	-0.023681	-0.582210	1.803004	-0.019241	-0.488296	1.674218	-0.011840	-0.370915	1.545432	-0.148003	-2.708760	11.460304	0.000000	0.000000	11.706216	-0.749182	-11.518176	23.673001	-10.953429	56.672904	68.708490	19.586151	9.041289	3.837442	29.489311	-8.957153	74.672997	39.163950	87.364084	-2.885454	-10.361507
0.067797	-3.053415	-3.295547	78.633142	0.119720	0.987304	0.294003	-2.115200	-1.972419	-10.197903	4.456785	0.077786	18.386936	17.178273	0.000000	-2.641332	3.921309	-5.049050	3.918453	0.068390	13.078827	-15.504063	0.000000	-0.032174	-0.224937	2.130908	-0.059750	-0.299166	2.264090	-0.052858	-0.546912	2.264090	-0.036771	-0.546912	1.864545	-0.029876	-0.458692	1.731363	-0.018384	-0.348428	1.598181	-0.229813	-2.544534	11.851473	0.000000	0.000000	11.602111	-0.744323	-12.132280	23.463349	-11.275725	56.122362	69.038148	19.127511	8.977631	3.534413	30.220801	-8.919498	77.427841	38.981454	87.967346	-5.355781	-12.651469
0.084746	-2.929016	-3.271000	78.675193	0.119267	0.987407	0.294013	-2.169582	-1.860830	-10.130201	4.407092	0.076918	18.424424	17.157761	0.000000	-2.707146	3.820971	-5.038494	3.879281	0.067706	13.066151	-15.539099	0.000000	-0.039292	-0.211474	2.159175	-0.072969	-0.281261	2.294123	-0.064553	-0.514178	2.294123	-0.044907	-0.514178	1.889278	-0.036487	-0.431238	1.754330	-0.022452	-0.327574	1.619381	-0.280660	-2.392239	12.008684	0.000000	0.000000	11.584831	-0.670818	-12.346623	23.373231	-11.474717	55.876318	69.246033	18.737191	8.899455	3.301386	30.461200	-8.967349	78.640572	39.008309	88.121120	-6.720040	-14.146124
0.101695	-2.835112	-3.276858	78.703186	0.118829	0.987488	0.293892	-2.187427	-1.781241	-10.128413	4.381234	0.076467	18.451272	17.160145	0.000000	-2.741347	3.748771	-5.021585	3.834089	0.066917	12.997865	-15.600417	0.000000	-0.042575	-0.199229	2.151728	-0.079066	-0.264975	2.286211	-0.069947	-0.484406	2.286211	-0.048659	-0.484406	1.882762	-0.039535	-0.406269	1.748279	-0.024327	-0.308606	1.613796	-0.304110	-2.253723	11.967265	0.000000	0.000000	11.638388	-0.541115	-12.225868	23.384760	-11.565965	55.889096	69.346200	18.407798	8.812367	3.136874	30.288693	-9.086194	78.550303	39.207755	87.901324	-7.134684	-14.952279
0.118644	-2.769146	-3.307421	78.718845	0.118409	0.987552	0.293663	-2.174883	-1.730892	-10.181600	4.375591	0.076368	18.467333	17.181082	0.000000	-2.749064	3.702429	-4.999867	3.784027	0.066044	12.883047	-15.683492	0.000000	-0.042522	-0.188366	2.114918	-0.078968	-0.250527	2.247101	-0.069860	-0.457993	2.247101	-0.048599	-0.457993	1.850554	-0.039486	-0.384116	1.718371	-0.024297	-0.291779	1.586189	-0.303732	-2.130833	11.762542	0.000000	0.000000	11.746791	-0.367662	-11.834680	23.480049	-11.565024	56.115021	69.352705	18.131940	8.721975	3.039392	29.781466	-9.261522	77.396146	39.543036	87.383879	-6.756171	-15.176742
0.135593	-2.728562	-3.356989	78.723889	0.118013	0.987603	0.293350	-2.138101	-1.707023	-10.278829	4.386545	0.076560	18.472463	17.216228	0.000000	-2.735426	3.679667	-4.974884	3.730247	0.065105	12.730778	-15.783794	0.000000	-0.039633	-0.179047	2.055099	-0.073602	-0.238133	2.183543	-0.065113	-0.435336	2.183543	-0.045296	-0.435336	1.798212	-0.036803	-0.365113	1.669768	-0.022646	-0.277344	1.541324	-0.283093	-2.025419	11.429844	0.000000	0.000000	11.894050	-0.162908	-11.237723	23.641212	-11.487454	56.508417	69.279601	17.902224	8.633886	3.007455	29.017703	-9.478821	75.417214	39.977394	86.644707	-5.740953	-14.926320
0.152542	-2.710805	-3.419862	78.720041	0.117644	0.987647	0.292977	-2.083231	-1.706871	-10.409162	4.410475	0.076977	18.466517	17.261239	0.000000	-2.705564	3.678206	-4.948179	3.673898	0.064122	12.550137	-15.896797	0.000000	-0.034406	-0.171437	1.978621	-0.063896	-0.228011	2.102285	-0.056526	-0.416831	2.102285	-0.039323	-0.416831	1.731293	-0.031950	-0.349594	1.607630	-0.019660	-0.265556	1.483966	-0.245759	-1.939327	11.004496	0.000000	0.000000	12.064175	0.060700	-10.499663	23.850362	-11.348812	57.023607	69.140945	17.711256	8.553708	3.039577	28.075591	-9.723580	72.852618	40.474071	85.759726	-4.245487	-14.307822
0.169492	-2.713319	-3.490341	78.709021	0.117307	0.987687	0.292567	-2.016422	-1.727677	-10.561664	4.443763	0.077558	18.449349	17.311771	0.000000	-2.664606	3.695768	-4.921295	3.616131	0.063113	12.350203	-16.017973	0.000000	-0.027342	-0.165698	1.891836	-0.050776	-0.220378	2.010076	-0.044920	-0.402877	2.010076	-0.031249	-0.402877	1.655357	-0.025390	-0.337891	1.537117	-0.015623	-0.256666	1.418877	-0.195299	-1.874405	10.521827	0.000000	0.000000	12.241176	0.290714	-9.685162	24.089612	-11.164656	57.614916	68.950790	17.551644	8.487047	3.134273	27.033315	-9.981287	69.941472	40.996310	84.804857	-2.426228	-13.428054
0.186441	-2.748086	-3.563547	78.695609	0.117027	0.987737	0.292156	-1.941073	-1.781541	-10.746861	4.490488	0.078374	18.440370	17.389938	0.000000	-2.610248	3.738624	-4.939177	3.525893	0.061538	12.270049	-15.984397	0.000000	-0.018595	-0.163135	1.799843	-0.034533	-0.216969	1.912334	-0.030550	-0.396645	1.912334	-0.021252	-0.396645	1.574863	-0.017268	-0.332664	1.462373	-0.010625	-0.252695	1.349883	-0.132824	-1.845411	10.010189	0.000000	0.000000	12.401853	0.490377	-8.858420	24.370414	-10.941468	58.242705	68.700585	17.286704	8.643645	3.512505	26.016101	-10.231763	67.100383	41.465426	83.829309	-0.687402	-12.397888
0.203390	-2.790230	-3.618863	78.676014	0.116806	0.987804	0.291778	-1.884553	-1.842558	-10.873398	4.524702	0.078971	18.381146	17.427017	0.000000	-2.573398	3.794610	-4.897430	3.459287	0.060376	12.086835	-16.127817	0.000000	-0.008536	-0.163188	1.722404	-0.015852	-0.217040	1.830054	-0.014024	-0.396776	1.830054	-0.009756	-0.396776	1.507103	-0.007926	-0.332773	1.399453	-0.004877	-0.252778	1.291803	-0.060971	-1.846017	9.579492	0.000000	0.000000	12.471243	0.631098	-8.263515	24.626753	-10.748408	58.855832	68.452505	17.026651	8.671884	3.725177	25.168390	-10.478764	64.674754	41.840523	83.400713	1.086570	-11.569846
0.220339	-2.839300	-3.651375	78.653524	0.116637	0.987900	0.291461	-1.849405	-1.910908	-10.949921	4.548489	0.079386	18.284419	17.424806	0.000000	-2.554781	3.860451	-4.876423	3.415452	0.059611	11.863011	-16.296511	0.000000	0.001560	-0.166046	1.664586	0.002897	-0.220841	1.768623	0.002563	-0.403723	1.768623	0.001783	-0.403723	1.456513	0.001448	-0.338600	1.352476	0.000891	-0.257205	1.248439	0.011142	-1.878341	9.257927	0.000000	0.000000	12.447363	0.716647	-7.925157	24.830214	-10.585615	59.364912	68.208456	16.786634	8.662355	3.905593	24.597689	-10.669589	63.083023	42.060993	83.165251	2.454858	-10.998046
0.237288	-2.892042	-3.664171	78.631011	0.116509	0.988013	0.291225	-1.832353	-1.982949	-10.992875	4.562310	0.079627	18.169363	17.399049	0.000000	-2.551408	3.931443	-4.869651	3.383616	0.059055	11.635770	-16.461848	0.000000	0.010991	-0.171301	1.628359	0.020412	-0.227831	1.730131	0.018058	-0.416502	1.730131	0.012562	-0.416502	1.424814	0.010206	-0.349318	1.323041	0.006280	-0.265346	1.221269	0.078509	-1.937796	9.056442	0.000000	0.000000	12.355155	0.762904	-7.828538	24.955625	-10.450435	59.694398	67.978595	16.607889	8.680024	4.147432	24.324734	-10.760085	62.387243	42.099537	83.082672	3.357949	-10.652637
0.254237	-2.946292	-3.660558	78.619295	0.116411	0.988132	0.291076	-1.832312	-2.054483	-11.018242	4.564213	0.079661	18.054899	17.355531	0.000000	-2.558934	4.005055	-4.813329	3.355272	0.058561	11.420855	-16.672772	0.000000	0.018904	-0.178631	1.611274	0.035107	-0.237579	1.711979	0.031058	-0.434322	1.711979	0.021606	-0.434322	1.409865	0.017555	-0.364263	1.309160	0.010802	-0.276699	1.208455	0.135032	-2.020704	8.961422	0.000000	0.000000	12.222702	0.778856	-7.931250	24.992334	-10.334811	59.800874	67.783389	16.521467	8.730837	4.520214	24.317247	-10.762217	62.461728	41.993599	83.158638	3.845314	-10.474534
0.271186	-3.004484	-3.640552	78.597076	0.116372	0.988251	0.291027	-1.838609	-2.130668	-11.043442	4.566243	0.079696	17.966520	17.330337	0.000000	-2.576592	4.079333	-4.864990	3.324474	0.058023	11.310825	-16.691920	0.000000	0.024146	-0.187903	1.614159	0.044841	-0.249911	1.715044	0.039669	-0.456868	1.715044	0.027596	-0.456868	1.412389	0.022422	-0.383172	1.311504	0.013797	-0.291062	1.210619	0.172472	-2.125599	8.977468	0.000000	0.000000	12.083953	0.797016	-8.144553	24.941820	-10.222259	59.670369	67.618081	16.517739	8.859720	5.056836	24.524916	-10.711624	63.108511	41.807662	83.380707	4.043795	-10.356128
0.288136	-3.060634	-3.610506	78.595303	0.116327	0.988365	0.291061	-1.846379	-2.204081	-11.091114	4.574903	0.079847	17.924270	17.300391	0.000000	-2.601903	4.152579	-4.791515	3.275812	0.057174	11.244008	-16.799869	0.000000	0.026523	-0.198325	1.636659	0.049256	-0.263772	1.738950	0.043575	-0.482207	1.738950	0.030313	-0.482207	1.432076	0.024629	-0.404424	1.329785	0.015155	-0.307205	1.227494	0.189451	-2.243489	9.102604	0.000000	0.000000	11.952432	0.795094	-8.518537	24.766642	-10.131711	59.250662	67.531572	16.655609	8.994690	5.690389	24.965080	-10.592159	64.392355	41.519140	83.782233	3.831581	-10.456207
0.305085	-3.123457	-3.572797	78.577637	0.116371	0.988462	0.291178	-1.857806	-2.279684	-11.163659	4.564397	0.079664	17.921766	17.330509	0.000000	-2.622446	4.222698	-4.897097	3.224688	0.056281	11.358949	-16.588056	0.000000	0.025457	-0.210424	1.671326	0.047277	-0.279864	1.775784	0.041824	-0.511625	1.775784	0.029095	-0.511625	1.462410	0.023640	-0.429097	1.357952	0.014546	-0.325947	1.253494	0.181840	-2.380358	9.295413	0.000000	0.000000	11.883653	0.828017	-8.870857	24.496767	-9.997683	58.544555	67.470438	17.061938	9.197324	6.546694	25.504273	-10.526876	65.871786	41.332924	84.249326	3.546778	-10.487844
